<?xml version="1.0" encoding="UTF-8"?>
<!DOCTYPE svg PUBLIC "-//W3C//DTD SVG 1.1//EN" "http://www.w3.org/Graphics/SVG/1.1/DTD/svg11.dtd">
<!-- Creator: CorelDRAW 2019 (64-Bit) -->
<svg xmlns="http://www.w3.org/2000/svg" xml:space="preserve" width="215.9mm" height="279.4mm" version="1.1" style="shape-rendering:geometricPrecision; text-rendering:geometricPrecision; image-rendering:optimizeQuality; fill-rule:evenodd; clip-rule:evenodd"
viewBox="0 0 21590 27940"
 xmlns:xlink="http://www.w3.org/1999/xlink">
 <defs>
  <style type="text/css">
   <![CDATA[
    .str0 {stroke:#1AB5B1;stroke-width:20;stroke-miterlimit:22.9256}
    .fil0 {fill:#1AB5B1}
   ]]>
  </style>
   <clipPath id="id0">
    <rect x="2558.97" y="25300.64" width="6265.34" height="1320.8"/>
   </clipPath>
   <clipPath id="id1">
    <rect x="10204.36" y="25707.04" width="4969.93" height="863.6"/>
   </clipPath>
   <clipPath id="id2">
    <rect x="16988.25" y="25616.04" width="2616.2" height="1168.4"/>
   </clipPath>
    <clipPath id="id3">
     <rect x="3569.05" y="8541.13" width="14675.92" height="1979.23"/>
    </clipPath>
    <clipPath id="id4">
     <path d="M4198.95 14621.65l13345.56 -316.27 -952.51 4157.42 -11616.95 0 -776.1 -3841.15z"/>
    </clipPath>
    <clipPath id="id5">
     <rect x="3569.05" y="10301.02" width="15058.5" height="494.8"/>
    </clipPath>
    <clipPath id="id6">
     <rect x="4390.2" y="14290.08" width="13079.12" height="545.82"/>
    </clipPath>
    <clipPath id="id7">
     <path d="M3563.95 10464.24l14686.12 0 -780.76 4169.35 -13227.07 202.31 -678.29 -4371.66z"/>
    </clipPath>
    <clipPath id="id8">
     <rect x="4564.88" y="11304.51" width="12735.29" height="2410.02"/>
    </clipPath>
     <clipPath id="id9">
      <path d="M8340.37 15090.09l-79.17 2669.77 -2886.64 6.52 -6.03 -2669.58 2971.84 -6.71z"/>
     </clipPath>
     <clipPath id="id10">
      <path d="M8340.37 15090.09l-79.17 2669.77 -2886.64 6.52 -6.03 -2669.58 2971.84 -6.71z"/>
     </clipPath>
     <clipPath id="id11">
      <path d="M8340.37 15090.09l-79.17 2669.77 -2886.64 6.52 -6.03 -2669.58 2971.84 -6.71z"/>
     </clipPath>
     <clipPath id="id12">
      <path d="M11425.08 15083.12l-90.79 2669.8 -3545.13 8.01 79.17 -2669.78 3556.75 -8.03z"/>
     </clipPath>
     <clipPath id="id13">
      <path d="M11425.08 15083.12l-90.79 2669.8 -3545.13 8.01 79.17 -2669.78 3556.75 -8.03z"/>
     </clipPath>
     <clipPath id="id14">
      <path d="M11425.08 15083.12l-90.79 2669.8 -3545.13 8.01 79.17 -2669.78 3556.75 -8.03z"/>
     </clipPath>
     <clipPath id="id15">
      <path d="M14466.71 15039.93l44.35 2669.5 -3685.21 8.32 90.8 -2669.8 3550.06 -8.02z"/>
     </clipPath>
     <clipPath id="id16">
      <path d="M14466.71 15039.93l44.35 2669.5 -3685.21 8.32 90.8 -2669.8 3550.06 -8.02z"/>
     </clipPath>
     <clipPath id="id17">
      <path d="M14466.71 15039.93l44.35 2669.5 -3685.21 8.32 90.8 -2669.8 3550.06 -8.02z"/>
     </clipPath>
     <clipPath id="id18">
      <path d="M13808.61 15077.73l44.35 2669.5 2333.05 -5.27 -6.03 -2669.58 -2371.37 5.35z"/>
     </clipPath>
     <clipPath id="id19">
      <path d="M16186 17741.96l0 -4.43 -6.02 -2665.15 -2371.37 5.35 44.35 2669.5 2333.04 -5.27z"/>
     </clipPath>
     <clipPath id="id20">
      <path d="M13808.61 15077.73l44.35 2669.5 2333.05 -5.27 -6.03 -2669.58 -2371.37 5.35z"/>
     </clipPath>
 </defs>
 <g id="Capa_x0020_1">
  <metadata id="CorelCorpID_0Corel-Layer"/>
  <g id="_2156293043744">
   <path class="fil0 str0" d="M16737.55 8213.43c-6461.92,-677.18 -5953.15,-1613.35 -5866.75,-1697.2 86.4,-83.85 57.89,-167 850.54,-651.47 1087.49,-664.67 1624.64,-576.57 1580.58,-946.16 -38.62,-323.91 -1322.21,-706.52 -1322.21,-706.52 0,0 546.52,461.68 465.05,814.19 -81.47,352.52 -2632.87,1015.25 -2846.82,1470.51 -213.95,455.25 -766.47,2036.18 7139.61,1716.65z"/>
   <path class="fil0 str0" d="M11182.94 4776.07c-10659.8,4260.3 5775.2,4869.99 5775.2,4869.99 0,0 -2635.25,240.68 -5240.75,34.38 -2602.38,-206.05 -5174.69,-864.47 -5062.35,-2647.58 0.13,-2.12 -0.14,2.15 0,0 0.02,-0.72 -3.06,-211.27 208.5,-494.48 105.79,-141.61 262.28,-300.54 501.69,-459.96 239.41,-159.42 561.63,-319.51 990.94,-462.19 1764.05,-483.09 2275.34,-808.2 2553.61,-1047.76 332.1,-285.9 -268.02,-633.33 -268.02,-633.33 1085.41,350.25 856.79,646.18 541.18,840.93z"/>
   <path class="fil0 str0" d="M7356.35 9207.05c-1765.3,-126.29 -1357.99,-709.79 -1305.63,-779.23 68.42,-90.72 485.09,-578.53 521.02,-587.2 -303.91,171.66 -641.34,314.03 -870.34,521.56 -229.01,207.53 -1055.22,1189.03 1654.95,844.87z"/>
   <path class="fil0 str0" d="M11588.69 7303.78c879.5,258.02 884.73,-156.35 826.95,-263.06 -36.2,-66.86 -252.73,-436.66 -275.46,-446.43 514.02,442.41 292.18,243.04 514.02,442.41 221.85,199.37 1023.81,1229.41 -1065.51,267.08z"/>
  </g>
  <g style="clip-path:url(#id0)">
   <image id="Capa_x0020_5" x="2558.97" y="25300.64" width="6265.34" height="1320.8" xlink:href="dreamCakeLogo_Images\dreamCakeLogo_ImgID1.png"/>
  </g>
  <g style="clip-path:url(#id1)">
   <image id="Capa_x0020_6" x="10204.36" y="25707.04" width="4969.93" height="863.6" xlink:href="dreamCakeLogo_Images\dreamCakeLogo_ImgID2.png"/>
  </g>
  <g style="clip-path:url(#id2)">
   <image id="Capa_x0020_7" x="16988.25" y="25616.04" width="2616.2" height="1168.4" xlink:href="dreamCakeLogo_Images\dreamCakeLogo_ImgID3.png"/>
  </g>
  <g id="_2156293090144">
   <g style="clip-path:url(#id3)">
    <image id="Forma_x0020_2" x="3569.05" y="8541.13" width="14675.91" height="1979.23" xlink:href="dreamCakeLogo_Images\dreamCakeLogo_ImgID4.png"/>
   </g>
   <g style="clip-path:url(#id4)">
    <image id="Rectángulo_x0020_1_x0020_copia" x="3563.95" y="14305.38" width="14686.11" height="4157.42" xlink:href="dreamCakeLogo_Images\dreamCakeLogo_ImgID5.png"/>
   </g>
   <g style="clip-path:url(#id5)">
    <image id="Capa_x0020_2" x="3569.05" y="10301.02" width="15058.5" height="494.8" xlink:href="dreamCakeLogo_Images\dreamCakeLogo_ImgID6.png"/>
   </g>
   <g style="clip-path:url(#id6)">
    <image id="Capa_x0020_2_x0020_copia" x="4390.2" y="14290.08" width="13079.11" height="545.82" xlink:href="dreamCakeLogo_Images\dreamCakeLogo_ImgID7.png"/>
   </g>
   <g style="clip-path:url(#id7)">
    <image id="Rectángulo_x0020_1" x="3563.95" y="10464.25" width="14686.11" height="4157.4" xlink:href="dreamCakeLogo_Images\dreamCakeLogo_ImgID8.png"/>
   </g>
   <g style="clip-path:url(#id8)">
    <image id="DREAM_x0020_" x="4564.88" y="11304.51" width="12735.29" height="2410.02" xlink:href="dreamCakeLogo_Images\dreamCakeLogo_ImgID9.png"/>
   </g>
   <g>
    <g style="clip-path:url(#id9)">
    </g>
    <g style="clip-path:url(#id10)">
     <image id="CAKE" x="5368.53" y="15068.68" width="12456.04" height="2697.7" xlink:href="dreamCakeLogo_Images\dreamCakeLogo_ImgID10.png"/>
    </g>
    <g style="clip-path:url(#id11)">
    </g>
    <g style="clip-path:url(#id12)">
    </g>
    <g style="clip-path:url(#id13)">
     <image id="CAKE_0" x="4896.49" y="15069.75" width="12456.04" height="2697.7" xlink:href="dreamCakeLogo_Images\dreamCakeLogo_ImgID11.png"/>
    </g>
    <g style="clip-path:url(#id14)">
    </g>
    <g style="clip-path:url(#id15)">
    </g>
    <g style="clip-path:url(#id16)">
     <image id="CAKE_1" x="4388.06" y="15034.58" width="12456.03" height="2697.7" xlink:href="dreamCakeLogo_Images\dreamCakeLogo_ImgID12.png"/>
    </g>
    <g style="clip-path:url(#id17)">
    </g>
    <g style="clip-path:url(#id18)">
    </g>
    <g style="clip-path:url(#id19)">
     <image id="CAKE_2" x="3729.97" y="15072.38" width="12456.03" height="2697.7" xlink:href="dreamCakeLogo_Images\dreamCakeLogo_ImgID13.png"/>
    </g>
    <g style="clip-path:url(#id20)">
    </g>
   </g>
   <g>
   </g>
  </g>
 </g>
</svg>
